<svg width="72" height="34" viewBox="0 0 72 34" fill="none" xmlns="http://www.w3.org/2000/svg">
<path d="M14.8402 10.4152C15.533 10.1844 16.2719 10.0612 17.0386 10.0612C20.3946 10.0612 23.1964 12.4434 23.8368 15.6104L28.5938 14.6409C27.5038 9.26102 22.7438 5.21069 17.0386 5.21069C15.73 5.21069 14.4769 5.42306 13.3008 5.81701L14.8402 10.4152Z" fill="white" fill-opacity="0.67"/>
<path d="M9.22723 25.8224L12.4447 22.1876C11.0099 20.9164 10.1047 19.0605 10.1047 16.9923C10.1047 14.9271 11.0099 13.0712 12.4447 11.8032L9.22723 8.16528C6.78873 10.3259 5.24927 13.4806 5.24927 16.9923C5.24927 20.5071 6.78873 23.6618 9.22723 25.8224" fill="white"/>
<path d="M23.8368 18.3834C23.1933 21.5474 20.3946 23.9265 17.0417 23.9265C16.2719 23.9265 15.5299 23.8034 14.8402 23.5694L13.3008 28.1738C14.4769 28.5647 15.7331 28.777 17.0417 28.777C22.7407 28.777 27.4977 24.7328 28.5938 19.3591L23.8368 18.3834Z" fill="white"/>
<path d="M32.7533 22.3383C32.5962 22.086 32.3869 21.6828 32.2575 21.3842C31.5032 19.6361 31.4693 17.8264 32.1036 16.0905C32.8025 14.1854 34.1388 12.7296 35.866 11.9848C38.0367 11.0522 40.4352 11.2338 42.5165 12.468C43.8374 13.2251 44.7733 14.3946 45.4846 16.0505C45.5739 16.2628 45.6539 16.4875 45.734 16.6814L32.7533 22.3383ZM37.0884 14.7948C35.5458 15.4565 34.7515 16.903 34.9177 18.5958L41.445 15.7858C40.3212 14.4685 38.8618 14.0315 37.0884 14.7948V14.7948ZM42.2579 20.9072C42.2548 20.9072 42.2548 20.9103 42.2548 20.9103L42.1193 20.8179C41.7283 21.4489 41.1218 21.9629 40.3551 22.2953C38.8957 22.9293 37.544 22.7662 36.5711 21.9136L36.4818 22.049C36.4818 22.049 36.4818 22.046 36.4787 22.046L34.8223 24.5236C35.2349 24.8098 35.6751 25.0499 36.137 25.2437C37.9659 26.004 39.8378 25.967 41.6821 25.1668C43.0153 24.5882 44.0621 23.7079 44.7764 22.5907L42.2579 20.9072ZM50.2692 8.3407V22.1106L52.4121 22.9785L51.196 25.8162L48.8314 24.8313C48.3018 24.6005 47.9385 24.2496 47.6675 23.8526C47.4058 23.4494 47.2119 22.8923 47.2119 22.1475V8.3407H50.2692ZM55.8174 18.605C55.8174 17.4324 56.3378 16.3798 57.1568 15.6658L54.9584 13.2159C53.4682 14.5331 52.5291 16.4567 52.5291 18.5989C52.5261 20.7441 53.4651 22.6707 54.9523 23.988L57.1475 21.5381C56.3316 20.821 55.8174 19.7746 55.8174 18.605V18.605ZM59.7215 22.5107C59.2904 22.5107 58.8717 22.4368 58.4838 22.3076L57.4339 25.4253C58.1512 25.6654 58.9179 25.7977 59.7184 25.7977C63.1976 25.8008 66.101 23.3325 66.7753 20.0546L63.5486 19.396C63.1822 21.178 61.6089 22.5138 59.7215 22.5107V22.5107ZM59.7307 11.4123C58.9333 11.4123 58.1666 11.5416 57.4493 11.7786L58.4899 14.8994C58.881 14.7701 59.2966 14.6993 59.7277 14.6993C61.6181 14.7024 63.1945 16.0443 63.5517 17.8294L66.7784 17.1769C66.1164 13.893 63.213 11.4154 59.7307 11.4123V11.4123Z" fill="white"/>
</svg>
